# xmcd CD database file
#
# Track frame offsets:
#	150
#	13888
#	25261
#	37094
#	49754
#	61931
#	75648
#	89844
#	101675
#	113791
#	126299
#	138002
#	149213
#	160585
#	175583
#	187583
#	198725
#	211494
#	223401
#	235928
#	248815
#	263017
#	277257
#	289148
#	301064
#	310683
#	325519
#	337620
#
# Disc length: 4682 seconds
#
# Revision: 3
# Processed by: cddbd v1.5.1PL0 Copyright (c) Steve Scherf et al.
# Submitted via: CDex 1.51
#
DISCID=9912481c
DTITLE=Joe Hill Louis - Boogie in the Park
DYEAR=2001
DGENRE=Blues
TTITLE0=Heartache Baby
TTITLE1=I Feel Like a Million
TTITLE2=Cold Chills
TTITLE3=Boogie in the Park
TTITLE4=Walkin' Talkin' Blues
TTITLE5=Come Back Baby
TTITLE6=Mistreat Me Woman
TTITLE7=Big Legged Woman
TTITLE8=Going Down Slow
TTITLE9=Train Ticket
TTITLE10=Broke and Hungry
TTITLE11=Highway 99
TTITLE12=Gotta Go Baby
TTITLE13=Street Walkin' Woman
TTITLE14=Early in the Morning
TTITLE15=Joe Hill Boogie
TTITLE16=The Way You Treat Me
TTITLE17=Eyesight to the Blind
TTITLE18=Peace of Mind
TTITLE19=Chocolate Blonde
TTITLE20=Twisting and Turning
TTITLE21=Western Union Man
TTITLE22=I Love My Baby
TTITLE23=Keep Away from My Baby
TTITLE24=At the Woodchopper's Ball
TTITLE25=She Broke Up My Life
TTITLE26=Good Morning Little Angel
TTITLE27=Backslide Boogie
EXTD=YEAR: 2001
EXTT0=
EXTT1=
EXTT2=
EXTT3=
EXTT4=
EXTT5=
EXTT6=
EXTT7=
EXTT8=
EXTT9=
EXTT10=
EXTT11=
EXTT12=
EXTT13=
EXTT14=
EXTT15=
EXTT16=
EXTT17=
EXTT18=
EXTT19=
EXTT20=
EXTT21=
EXTT22=
EXTT23=
EXTT24=
EXTT25=
EXTT26=
EXTT27=
PLAYORDER=
